<svg xmlns="http://www.w3.org/2000/svg" version="1.1" xmlnsXlink="http://www.w3.org/1999/xlink" xmlnssvgjs="http://svgjs.dev/svgjs" width="2000" height="2000" viewBox="0 0 2000 2000"><g transform="matrix(1,0,0,1,0,0)"><svg viewBox="0 0 280 280" data-background-color="#ffffff" preserveAspectRatio="xMidYMid meet" height="2000" width="2000" xmlns="http://www.w3.org/2000/svg" xmlnsXlink="http://www.w3.org/1999/xlink"><g id="tight-bounds" transform="matrix(1,0,0,1,0,0)"><svg viewBox="0 0 280 280" height="280" width="280"><g><svg viewBox="0 0 280 280" height="280" width="280"><g><svg viewBox="0 0 280 280" height="280" width="280"><g id="textblocktransform"><svg viewBox="0 0 280 280" height="280" width="280" id="textblock"><g><svg viewBox="0 0 280 280" height="280" width="280"><g transform="matrix(1,0,0,1,57.50420886156945,57.50420886156945)"><svg viewBox="0 0 164.9915822768611 164.9915822768611" height="164.9915822768611" width="164.9915822768611"><g><circle r="82" cx="82.49579113843055" cy="82.49579113843055" fill="#374151" data-fill-palette-color="accent"></circle><svg xmlns="http://www.w3.org/2000/svg" xmlnsXlink="http://www.w3.org/1999/xlink" version="1.1" x="24.748737341529164" y="24.74873734152917" viewBox="13.899998664855957 4.699999809265137 72.49999237060547 90.30000305175781" enable-background="new 0 0 100 100" xmlSpace="preserve" height="115.49410759380275" width="115.49410759380275" class="icon-o-0" data-fill-palette-color="quaternary" id="o-0"><path d="M80.4 32c0-3.3-2.7-6-6-6h-4.5C69.1 11 61.4 4.7 54.2 4.7c-1.1 0-2.2 0.2-3.3 0.5-1.1-0.3-2.2-0.5-3.3-0.5C40.4 4.7 32.7 11 31.9 26h-6.3c-3.3 0-6 2.7-6 6l-5.7 56.9 0 0.1c0 3.3 2.7 6 6.1 6h60.3c3.3 0 6.1-2.6 6.1-6L80.4 32zM66.6 26h-3.3c-0.4-9-3.3-14.4-7-17.7C61.3 9.5 66 15 66.6 26zM50.9 8.6c4.5 1.8 8.6 7.4 9.2 17.4H41.7C42.3 16 46.3 10.4 50.9 8.6zM45.4 8.3c-3.7 3.4-6.5 8.7-7 17.7h-3.3C35.8 15 40.5 9.5 45.4 8.3zM80.1 91H19.9c-1.5 0-2.7-0.8-2.8-2.3L22.8 32l0-0.2c0-1.5 1.2-2.8 2.8-2.8h48.8c1.5 0 2.8 1.4 2.8 2.9l5.8 56.7C82.9 90.2 81.7 91 80.1 91z" fill="#8dbdff" data-fill-palette-color="quaternary"></path><circle cx="64.9" cy="38.8" r="2.5" fill="#8dbdff" data-fill-palette-color="quaternary"></circle><circle cx="36.4" cy="38.8" r="2.5" fill="#8dbdff" data-fill-palette-color="quaternary"></circle></svg></g></svg></g><path d="M9.725 188.574c0.371 1.1 0.869 2.103 1.493 3.01 0.633 0.91 1.303 1.66 2.008 2.248 0.706 0.589 1.37 0.977 1.992 1.166v0l1.663-1.517c-0.712-0.499-1.331-1.077-1.856-1.734-0.535-0.661-0.965-1.476-1.293-2.447v0c-0.364-1.081-0.415-2.133-0.151-3.157 0.262-1.031 0.822-1.959 1.682-2.785 0.866-0.829 1.996-1.478 3.389-1.948v0c1.888-0.636 3.462-0.826 4.724-0.57 1.259 0.25 2.082 0.951 2.471 2.104v0c0.195 0.579 0.269 1.185 0.221 1.817-0.05 0.626-0.207 1.172-0.47 1.638v0l-3.04 2.047 0.497 2.573 6.274-1.615c0.254-0.644 0.335-1.556 0.242-2.735-0.097-1.171-0.305-2.228-0.623-3.172v0c-0.816-2.422-1.955-4.271-3.415-5.548-1.462-1.283-3.071-2.046-4.827-2.288-1.756-0.242-3.523-0.063-5.301 0.536v0c-2.812 0.948-4.727 2.463-5.743 4.546-1.016 2.083-0.995 4.693 0.063 7.831zM13.51 197.712l7.679 15.125 6.166-2.334-0.831-2.409-4.943-0.472-1.558-3.821 10.879-5.523 2.685 1.988 2.139-0.728-5.132-10.107-2.124 0.755-0.171 3.033-10.622 5.394-2.181-1.632zM27.87 223.21c1.107 1.548 2.41 2.719 3.909 3.514 1.504 0.791 3.106 1.118 4.808 0.982 1.707-0.14 3.396-0.808 5.067-2.004v0c2.827-2.023 4.404-4.182 4.73-6.477 0.321-2.291-0.374-4.632-2.085-7.023v0c-1.207-1.687-2.591-2.907-4.151-3.657-1.554-0.755-3.179-1.024-4.874-0.808-1.694 0.207-3.334 0.878-4.921 2.013v0c-1.604 1.147-2.806 2.43-3.607 3.848-0.796 1.414-1.117 2.937-0.964 4.568 0.157 1.636 0.853 3.318 2.088 5.044zM41.72 213.186c0.588 0.821 0.668 1.736 0.24 2.743-0.422 1.003-1.065 1.936-1.927 2.797-0.863 0.871-1.711 1.605-2.544 2.201v0c-1.743 1.247-3.172 1.966-4.286 2.155-1.109 0.185-1.944-0.113-2.504-0.895v0c-0.604-0.844-0.715-1.778-0.333-2.803 0.382-1.025 0.988-1.978 1.819-2.86 0.831-0.882 1.643-1.606 2.436-2.174v0c1.704-1.219 3.149-1.945 4.335-2.177 1.195-0.23 2.117 0.107 2.764 1.013zM49.065 219.465l-4.778 4.754 1.534 2.134 4.144-2.224 1.712 1.742-9.385 9.225-2.743-1.291-1.666 1.348 8.091 8.231 1.835-1.456-1.666-2.9 9.392-9.233 1.755 1.786-2.084 3.422 1.62 2.324 5.322-4.553zM60.103 233.914l1.649 2.58-7.142 9.943-2.804-0.529-1.369 1.605 8.505 6.108 1.542-1.671-1.307-2.119 2.512-3.499 5.165 3.71-2.459 3.423-2.402-0.241-1.403 1.581 8.588 6.168 1.484-1.713-1.659-2.371 7.262-10.112 2.679 0.669 1.569-1.69-8.646-6.21-1.544 1.708 1.214 2.267-2.453 3.415-5.164-3.709 2.518-3.507 2.286 0.386 1.569-1.69-8.546-6.138zM78.921 247.339l2.025 2.334-5.633 10.801-2.943-0.175-1.137 1.847 9.694 5.057 1.312-2.071-1.996-2.122 5.599-10.736 2.894 0.358 1.348-2.051-9.831-5.128zM88.842 252.582l2.098 2.132-4.088 11.266-2.862 0.244-0.862 1.924 8.331 3.023 0.954-2.055-2.25-1.836 2.123-5.851 3.836 11.905 4.433 0.896 5.266-14.511 2.324-0.242 1.139-2.021-7.837-2.843-1.129 2.024 2.306 2.043-2.636 7.265-4.247-13.403-5.88-2.134zM115.721 278.118c0.757 0.138 1.669 0.214 2.734 0.227 1.059 0.012 2.067-0.038 3.024-0.151 0.956-0.112 1.668-0.265 2.136-0.458v0l0.738-4.046 1.544-0.367 0.825-2.741-9.753-1.779-0.816 2.522 3.139 1.568-0.273 1.501c-0.353 0.292-0.741 0.465-1.164 0.521-0.414 0.05-0.946 0.016-1.594-0.103v0c-0.953-0.174-1.723-0.604-2.31-1.291-0.586-0.693-0.962-1.635-1.13-2.824-0.173-1.198-0.11-2.611 0.187-4.24v0c0.374-2.048 1.01-3.472 1.91-4.271 0.9-0.8 2.05-1.072 3.449-0.817v0c0.892 0.163 1.617 0.403 2.173 0.721 0.558 0.311 1.053 0.698 1.485 1.161v0l-0.06 3.834 2.778 0.737 1.82-6.477c-0.857-0.547-1.794-1.036-2.812-1.466-1.023-0.438-2.414-0.817-4.171-1.138v0c-1.879-0.343-3.748-0.261-5.607 0.245-1.851 0.5-3.451 1.441-4.8 2.822-1.347 1.374-2.216 3.133-2.606 5.276v0c-0.541 2.967-0.046 5.383 1.485 7.247 1.53 1.871 4.086 3.134 7.669 3.787zM133.91 263.239l2.929 0.979 0.396 12.391-2.464 0.976-0.077 2.415 18.149-0.581 0.263-6.277-2.522-0.177-2.104 3.851-5.551-0.131-0.166-5.181 1.741 0.253 4.185 0.629 0.36-4.228-3.852 0.443-0.494 0.046-2.024 0.23-0.175-5.479 5.263-0.169 1.374 3.307 2.619 0.318 0.249-6.39-17.881 0.572zM155.602 279.035l8.27-1.837-0.16-2.477-2.147-0.59-1.353-8.419 6.031 11.086 4.236-1.554 0.854-11.981 2.203 8.304-1.291 1.364 0.168 2.369 9.839-2.185-0.321-2.442-2.7-0.466-3.404-11.806 2.084-1.308-0.246-2.394-9.236 2.052-0.323 3.249-0.71 7.78-3.508-6.811-1.525-2.871-9.698 2.154 0.287 2.386 2.927 0.247 1.769 12.053-2.243 1.734zM195.674 267.533l-0.641-2.449-3.938 0.537-4.867-11.413c0.35-0.231 0.651-0.401 0.904-0.509v0c0.885-0.377 1.705-0.327 2.461 0.15 0.753 0.47 1.35 1.221 1.789 2.251v0c0.358 0.841 0.386 1.624 0.083 2.35-0.303 0.727-0.96 1.305-1.971 1.737v0l-0.293 0.125 1.488 2.256c0.461-0.144 0.85-0.284 1.166-0.419v0c1.365-0.582 2.459-1.37 3.283-2.363 0.83-0.996 1.338-2.083 1.523-3.26 0.192-1.18 0.048-2.332-0.432-3.457v0c-0.884-2.073-2.173-3.267-3.869-3.582-1.693-0.309-3.781 0.066-6.265 1.125v0c-1.612 0.687-2.995 1.348-4.151 1.983-1.159 0.644-2.539 1.471-4.14 2.482v0l0.761 2.309 2.936-0.524 4.733 11.101-2.153 2.228 0.512 2.068zM211.51 259.381c1.616-1.005 2.869-2.229 3.759-3.673 0.886-1.449 1.317-3.028 1.291-4.735-0.03-1.713-0.587-3.441-1.672-5.185v0c-1.836-2.952-3.889-4.665-6.158-5.139-2.265-0.468-4.646 0.074-7.143 1.627v0c-1.762 1.096-3.068 2.398-3.918 3.906-0.854 1.502-1.228 3.106-1.121 4.811 0.097 1.704 0.66 3.384 1.691 5.041v0c1.041 1.674 2.244 2.957 3.607 3.848 1.36 0.886 2.858 1.305 4.496 1.258 1.643-0.051 3.366-0.637 5.168-1.759zM202.402 244.913c0.858-0.533 1.775-0.554 2.753-0.062 0.974 0.486 1.863 1.187 2.667 2.103 0.814 0.918 1.491 1.811 2.032 2.681v0c1.132 1.82 1.757 3.293 1.873 4.417 0.113 1.119-0.238 1.932-1.055 2.44v0c-0.881 0.548-1.82 0.598-2.818 0.152-0.998-0.447-1.91-1.114-2.737-2-0.826-0.886-1.497-1.743-2.012-2.571v0c-1.107-1.779-1.737-3.268-1.892-4.467-0.152-1.208 0.244-2.106 1.189-2.693zM229.79 245.054l-1.423-1.891-2.299 0.93-2.627-2.973 1.761-1.556 1.082 0.695c1.283 0.819 2.456 1.374 3.518 1.664 1.068 0.285 2.089 0.3 3.064 0.044 0.97-0.261 1.937-0.817 2.899-1.668v0c0.371-0.327 0.704-0.672 0.999-1.033 0.29-0.357 0.492-0.673 0.606-0.948v0l-0.968-1.812-0.708 0.102c-0.967 0.13-1.91 0.193-2.83 0.19-0.924-0.009-1.911-0.14-2.961-0.396v0l-2.703-0.678-0.007-0.008c0.501-1.02 0.715-2.071 0.641-3.151-0.069-1.085-0.524-2.104-1.366-3.056v0c-0.855-0.968-1.794-1.518-2.818-1.649-1.024-0.132-2.146 0.113-3.368 0.733-1.217 0.626-2.592 1.616-4.126 2.971v0c-2.678 2.365-4.814 4.606-6.411 6.722v0l1.478 1.953 2.672-1.412 7.866 8.906-1.38 2.827 1.176 1.767zM217.335 234.207c0.073-0.083 0.195-0.2 0.365-0.349v0c0.541-0.478 1.12-0.787 1.737-0.93 0.612-0.137 1.197-0.118 1.756 0.058 0.559 0.176 1.029 0.48 1.411 0.913v0c0.514 0.582 0.872 1.122 1.075 1.621 0.208 0.495 0.298 0.997 0.271 1.506v0l-2.317 2.047zM226.427 225.668l2.737-1.436 9.221 7.959-0.844 2.824 1.537 1.531 7.144-8.278-1.715-1.752-2.523 1.457-9.167-7.911 1.012-2.734-1.687-1.783-7.245 8.395zM236.166 215.443l6.999 4.51c1.888 1.217 3.544 1.748 4.968 1.595 1.425-0.144 2.595-0.641 3.51-1.49 0.909-0.853 1.786-1.935 2.63-3.245v0c1.481-2.299 1.996-4.435 1.544-6.41-0.452-1.975-1.936-3.793-4.453-5.456v0l-6.022-3.954 0.504-2.666-1.783-1.456-4.834 7.502 1.761 1.49 2.404-1.638 6.827 4.398c1.276 0.822 2.05 1.701 2.322 2.637 0.272 0.935 0.103 1.876-0.508 2.823v0c-0.685 1.063-1.54 1.692-2.566 1.89-1.026 0.197-2.218-0.142-3.574-1.016v0l-6.749-4.348 0.505-2.667-1.739-1.525-5.951 9.235 1.684 1.612zM261.023 204.948l3.07-7.895-2.148-1.244-1.683 1.457-7.751-3.555 12.567 1.149 1.064-4.385-9.486-7.37 8.128 2.784 0.416 1.831 2.063 1.178 3.652-9.393-2.207-1.091-1.889 1.986-11.706-3.733 0.071-2.46-2.127-1.126-3.428 8.818 2.521 2.075 6.073 4.914-7.612-0.869-3.234-0.328-3.6 9.259 2.143 1.087 1.832-2.295 11.003 5.228 0.194 2.829z" fill="#374151" data-fill-palette-color="primary"></path><path d="M23.729 101.222C24.1 100.122 24.311 99.023 24.363 97.923 24.41 96.816 24.331 95.814 24.125 94.918 23.92 94.022 23.626 93.311 23.246 92.784V92.784L21.003 92.985C21.268 93.813 21.41 94.648 21.431 95.489 21.457 96.338 21.306 97.248 20.979 98.218V98.218C20.615 99.299 20.017 100.167 19.187 100.822 18.355 101.484 17.347 101.884 16.162 102.021 14.971 102.156 13.679 101.989 12.286 101.519V101.519C10.398 100.883 9.03 100.081 8.182 99.113 7.331 98.152 7.1 97.096 7.488 95.943V95.943C7.684 95.364 7.992 94.837 8.413 94.363 8.832 93.895 9.287 93.555 9.778 93.344V93.344L13.437 93.555 14.599 91.206 8.628 88.693C8.035 89.052 7.419 89.729 6.779 90.724 6.148 91.714 5.673 92.682 5.355 93.626V93.626C4.539 96.047 4.325 98.208 4.714 100.109 5.101 102.015 5.92 103.596 7.171 104.852 8.423 106.108 9.937 107.035 11.715 107.634V107.634C14.527 108.582 16.968 108.535 19.038 107.493 21.107 106.451 22.671 104.36 23.729 101.222ZM25.897 93.653L33.576 78.528 28.054 74.927 26.598 77.02 29.135 81.289 26.97 84.802 16.09 79.278 16.111 75.937 14.262 74.64 9.13 84.747 10.993 86.017 13.543 84.364 24.165 89.757 24.134 92.481ZM39.839 70.43C40.946 68.882 41.634 67.271 41.903 65.597 42.167 63.918 41.959 62.296 41.281 60.729 40.597 59.158 39.42 57.775 37.749 56.58V56.58C34.922 54.557 32.37 53.761 30.093 54.193 27.821 54.629 25.829 56.042 24.118 58.434V58.434C22.911 60.121 22.204 61.824 21.996 63.542 21.783 65.257 22.052 66.882 22.804 68.416 23.547 69.953 24.711 71.289 26.298 72.424V72.424C27.901 73.572 29.504 74.296 31.105 74.596 32.7 74.893 34.245 74.706 35.739 74.035 37.237 73.358 38.604 72.156 39.839 70.43ZM25.881 60.557C26.469 59.735 27.309 59.365 28.4 59.445 29.486 59.521 30.576 59.827 31.67 60.365 32.773 60.901 33.741 61.467 34.574 62.063V62.063C36.317 63.31 37.458 64.431 37.997 65.425 38.53 66.414 38.517 67.301 37.958 68.083V68.083C37.354 68.926 36.505 69.333 35.412 69.303 34.319 69.272 33.221 69.006 32.118 68.504 31.016 68.003 30.068 67.468 29.275 66.9V66.9C27.57 65.681 26.417 64.548 25.815 63.5 25.212 62.443 25.234 61.462 25.881 60.557ZM31.913 48.75L36.748 53.445 38.855 51.875 36.561 47.77 38.273 46.028 47.658 55.254 46.413 58.019 47.79 59.661 55.881 51.43 54.394 49.621 51.523 51.336 42.131 42.104 43.886 40.318 47.343 42.343 49.639 40.684 44.996 35.441ZM48.742 35.343L51.713 34.605 58.855 44.548 57.457 47.037 58.541 48.846 67.046 42.739 65.955 40.743 63.529 41.305 61.017 37.807 66.181 34.097 68.64 37.521 67.644 39.721 68.694 41.554 77.282 35.386 76.133 33.433 73.356 34.248 66.094 24.137 67.583 21.811 66.483 19.784 57.836 25.994 58.962 28.003 61.498 27.577 63.951 30.992 58.786 34.701 56.267 31.194 57.363 29.151 56.263 27.125 47.717 33.262ZM69.914 20.468L72.988 20.144 78.62 30.944 76.793 33.257 77.657 35.247 87.352 30.191 86.405 27.93 83.522 28.353 77.923 17.616 79.872 15.449 78.962 13.169 69.13 18.297ZM82.269 14.379L85.246 14.669 89.334 25.936 87.295 27.958 87.866 29.987 96.197 26.964 95.612 24.776 92.708 24.81 90.585 18.959 101.163 25.634 105.139 23.478 99.873 8.967 101.501 7.291 101.079 5.01 93.242 7.854 93.674 10.131 96.754 10.219 99.39 17.485 87.537 9.924 81.656 12.058ZM118.347 21.354C119.104 21.216 119.983 20.965 120.985 20.601 121.98 20.238 122.906 19.835 123.761 19.393 124.616 18.95 125.228 18.556 125.598 18.209V18.209L124.86 14.164 126.175 13.275 125.979 10.419 116.226 12.198 116.353 14.846 119.844 15.205 120.117 16.705C119.89 17.103 119.588 17.402 119.213 17.603 118.843 17.796 118.334 17.952 117.685 18.071V18.071C116.732 18.244 115.859 18.114 115.068 17.678 114.275 17.236 113.59 16.488 113.014 15.434 112.429 14.375 111.989 13.03 111.692 11.402V11.402C111.318 9.354 111.411 7.797 111.971 6.731 112.531 5.665 113.51 5.005 114.909 4.749V4.749C115.801 4.587 116.564 4.556 117.197 4.657 117.829 4.751 118.429 4.938 118.997 5.219V5.219L120.294 8.827 123.153 8.536 122.569 1.833C121.574 1.624 120.525 1.497 119.42 1.454 118.308 1.406 116.873 1.542 115.116 1.862V1.862C113.237 2.205 111.517 2.941 109.956 4.071 108.401 5.193 107.237 6.638 106.463 8.406 105.688 10.168 105.495 12.12 105.886 14.262V14.262C106.427 17.229 107.744 19.315 109.835 20.519 111.927 21.729 114.764 22.008 118.347 21.354ZM134.539 2.185L137.399 3.348 137.003 15.739 134.481 16.556 134.25 18.961 152.398 19.542 153.062 13.294 150.557 12.956 148.211 16.665 142.68 16.179 142.846 10.998 144.566 11.362 148.703 12.258 149.332 8.061 145.459 8.256 144.964 8.272 142.93 8.371 143.105 2.892 148.368 3.06 149.528 6.448 152.121 6.933 152.778 0.572 134.898 0ZM152.59 19.603L160.859 21.44 161.763 19.128 160.068 17.685 162.406 9.485 163.176 22.081 167.672 22.468 173.518 11.975 171.999 20.431 170.252 21.12 169.4 23.337 179.239 25.523 179.982 23.175 177.733 21.61 179.648 9.473 182.09 9.171 182.88 6.897 173.645 4.846 171.977 7.653 168.039 14.4 167.745 6.744 167.579 3.498 157.881 1.344 157.131 3.626 159.678 5.089 156.178 16.758 153.411 17.379ZM190.225 30.321L191.549 28.163 188.435 25.693 193.301 14.28C193.71 14.372 194.041 14.472 194.294 14.58V14.58C195.179 14.957 195.711 15.583 195.89 16.459 196.072 17.328 195.943 18.278 195.504 19.308V19.308C195.146 20.148 194.6 20.711 193.866 20.996 193.132 21.28 192.26 21.207 191.248 20.776V20.776L190.955 20.65 190.357 23.286C190.781 23.519 191.15 23.703 191.466 23.838V23.838C192.831 24.42 194.158 24.664 195.445 24.57 196.738 24.48 197.874 24.094 198.851 23.413 199.835 22.734 200.567 21.833 201.046 20.708V20.708C201.93 18.635 201.899 16.878 200.953 15.436 200.004 14.001 198.288 12.754 195.804 11.695V11.695C194.192 11.007 192.758 10.466 191.499 10.072 190.232 9.681 188.68 9.258 186.842 8.803V8.803L185.703 10.95 188.113 12.706 183.38 23.806 180.281 23.796 179.144 25.596ZM203.737 38.191C205.353 39.196 207.006 39.779 208.694 39.939 210.386 40.094 211.992 39.782 213.512 39.004 215.035 38.22 216.339 36.955 217.424 35.211V35.211C219.26 32.259 219.889 29.661 219.311 27.416 218.729 25.177 217.19 23.282 214.693 21.729V21.729C212.931 20.633 211.186 20.037 209.458 19.941 207.733 19.839 206.129 20.213 204.646 21.062 203.161 21.902 201.903 23.15 200.873 24.807V24.807C199.831 26.482 199.212 28.127 199.015 29.744 198.822 31.356 199.109 32.885 199.875 34.333 200.647 35.784 201.935 37.07 203.738 38.191ZM212.688 23.625C213.546 24.158 213.97 24.972 213.961 26.067 213.955 27.156 213.719 28.263 213.254 29.389 212.79 30.525 212.288 31.527 211.747 32.396V32.396C210.615 34.217 209.571 35.428 208.614 36.03 207.66 36.626 206.775 36.67 205.958 36.162V36.162C205.077 35.614 204.617 34.794 204.577 33.701 204.536 32.608 204.731 31.495 205.16 30.362 205.59 29.23 206.062 28.249 206.577 27.421V27.421C207.684 25.642 208.741 24.418 209.747 23.749 210.763 23.078 211.743 23.037 212.688 23.625ZM220.593 50.434L222.295 48.788 221.087 46.621 223.714 43.648 225.475 45.203 224.919 46.362C224.264 47.736 223.858 48.968 223.702 50.058 223.551 51.153 223.662 52.168 224.037 53.104 224.416 54.035 225.087 54.925 226.049 55.776V55.776C226.42 56.103 226.803 56.391 227.198 56.639 227.588 56.883 227.926 57.044 228.214 57.124V57.124L229.893 55.939 229.704 55.25C229.456 54.307 229.276 53.378 229.166 52.465 229.061 51.547 229.07 50.551 229.193 49.477V49.477L229.533 46.711 229.539 46.703C230.614 47.075 231.682 47.157 232.745 46.95 233.813 46.748 234.768 46.17 235.609 45.218V45.218C236.464 44.25 236.894 43.25 236.898 42.217 236.902 41.185 236.521 40.102 235.755 38.966 234.984 37.836 233.831 36.593 232.297 35.238V35.238C229.619 32.873 227.132 31.029 224.836 29.706V29.706L223.08 31.414 224.81 33.891 216.944 42.797 213.968 41.776 212.36 43.161ZM229.82 36.735C229.911 36.797 230.042 36.904 230.212 37.054V37.054C230.753 37.531 231.131 38.068 231.348 38.663 231.56 39.253 231.613 39.836 231.508 40.412 231.402 40.988 231.159 41.493 230.777 41.925V41.925C230.263 42.507 229.77 42.929 229.3 43.192 228.835 43.459 228.348 43.611 227.839 43.648V43.648L225.522 41.601ZM241.171 46.683L242.192 49.6 232.97 57.558 230.3 56.31 228.561 57.607 235.704 65.884 237.688 64.445 236.616 61.735 245.783 53.824 248.34 55.225 250.35 53.817 243.105 45.422ZM250.632 60.311L243.633 64.821C241.744 66.038 240.576 67.326 240.128 68.686 239.67 70.043 239.639 71.314 240.034 72.498 240.435 73.678 241.057 74.923 241.902 76.234V76.234C243.383 78.533 245.116 79.884 247.101 80.289 249.086 80.693 251.356 80.093 253.91 78.489V78.489L259.999 74.639 262.218 76.2 264.281 75.178 259.447 67.676 257.362 68.663 257.86 71.53 251.034 75.928C249.758 76.751 248.638 77.092 247.674 76.953 246.71 76.814 245.922 76.271 245.312 75.324V75.324C244.628 74.262 244.407 73.222 244.652 72.207 244.897 71.191 245.697 70.246 247.055 69.371V69.371L253.803 65.023 256.022 66.584 258.13 65.631 252.18 56.397 250.017 57.263ZM248.075 85.162L251.145 93.057 253.569 92.524 253.826 90.312 261.942 87.698 251.899 95.34 254.077 99.292 266.049 98.319 258.175 101.756 256.632 100.687 254.315 101.212 257.967 110.605 260.331 109.918 260.383 107.178 271.536 102.024 273.145 103.886 275.474 103.279 272.046 94.462 268.785 94.635 260.988 95.112 267.188 90.612 269.795 88.67 266.195 79.411 263.881 80.056 264.08 82.986 252.434 86.563 250.381 84.608Z" fill="#374151" data-fill-palette-color="primary"></path><path d="M6.914 142.538c0-1.228 0.995-2.223 2.224-2.223 1.228 0 2.223 0.995 2.223 2.223 0 1.228-0.995 2.223-2.223 2.223-1.228 0-2.223-0.995-2.224-2.223zM266.613 142.538c0-1.228 0.995-2.223 2.223-2.223 1.228 0 2.223 0.995 2.224 2.223 0 1.228-0.995 2.223-2.224 2.223-1.228 0-2.223-0.995-2.223-2.223z" fill="#374151" data-fill-palette-color="primary"></path></svg></g></svg></g></svg></g></svg></g><defs></defs></svg><rect width="280" height="280" fill="none" stroke="none" visibility="hidden"></rect></g></svg></g></svg>